<?xml version="1.0" standalone="no"?>
<!DOCTYPE svg PUBLIC "-//W3C//DTD SVG 20010904//EN"
 "http://www.w3.org/TR/2001/REC-SVG-20010904/DTD/svg10.dtd">
<svg version="1.0" xmlns="http://www.w3.org/2000/svg"
 width="500.000000pt" height="500.000000pt" viewBox="0 0 500.000000 500.000000"
 preserveAspectRatio="xMidYMid meet">
<metadata>
Created by potrace 1.14, written by Peter Selinger 2001-2017
</metadata>
<g transform="translate(0.000000,500.000000) scale(0.100000,-0.100000)"
fill="#000000" stroke="none">
<path d="M410 4989 c-136 -22 -287 -134 -351 -261 -60 -119 -57 -3 -58 -2208
0 -1282 3 -2051 9 -2095 14 -98 68 -205 140 -275 63 -62 173 -122 258 -139 75
-16 4109 -15 4184 0 198 41 362 207 397 403 8 41 11 684 11 2090 0 2226 3
2101 -60 2227 -66 129 -214 236 -360 259 -82 12 -4090 12 -4170 -1z"/>
</g>
</svg>
